<?xml version="1.0" encoding="UTF-8"?>
<svg width="409px" height="507px" viewBox="0 0 409 507" version="1.1" xmlns="http://www.w3.org/2000/svg" xmlns:xlink="http://www.w3.org/1999/xlink">
    <title>waveform-lines-sharp-regular</title>
    <g id="Page-1" stroke="none" stroke-width="1" fill="none" fill-rule="evenodd">
        <g id="waveform-lines-sharp-regular" transform="translate(0.700000, 0.000000)" fill="#386E5C" fill-rule="nonzero">
            <path d="M242.0125,0 L242.0125,23.765625 L242.0125,483.234375 L242.0125,507 L165.5875,507 L165.5875,483.234375 L165.5875,23.765625 L165.5875,0 L242.0125,0 Z M76.425,95.0625 L76.425,118.828125 L76.425,388.171875 L76.425,411.9375 L5.68434189e-14,411.9375 L5.68434189e-14,388.171875 L5.68434189e-14,118.828125 L5.68434189e-14,95.0625 L76.425,95.0625 Z M407.6,126.75 L407.6,150.515625 L407.6,356.484375 L407.6,380.25 L331.175,380.25 L331.175,356.484375 L331.175,150.515625 L331.175,126.75 L407.6,126.75 Z" id="Shape"></path>
        </g>
    </g>
</svg>